<svg xmlns="http://www.w3.org/2000/svg" viewBox="0 0 512 512">
  <defs>
    <linearGradient id="grad6" x1="0%" y1="0%" x2="100%" y2="100%">
      <stop offset="0%" style="stop-color:#A78BFA;stop-opacity:1" />
      <stop offset="100%" style="stop-color:#6D28D9;stop-opacity:1" />
    </linearGradient>
  </defs>
  <!-- Rounded square background -->
  <rect x="16" y="16" width="480" height="480" rx="96" ry="96" fill="#0D0D0D"/>
  <!-- Open crate shape (bracket-like) -->
  <path d="M 150 120 L 110 120 C 95 120 84 131 84 146 L 84 366 C 84 381 95 392 110 392 L 150 392" 
        fill="none" stroke="#8B5CF6" stroke-width="24" stroke-linecap="round" stroke-linejoin="round"/>
  <path d="M 362 120 L 402 120 C 417 120 428 131 428 146 L 428 366 C 428 381 417 392 402 392 L 362 392" 
        fill="none" stroke="#8B5CF6" stroke-width="24" stroke-linecap="round" stroke-linejoin="round"/>
  <!-- Three stacked lines inside (like files/sets in a crate) -->
  <rect x="160" y="180" width="192" height="24" rx="4" fill="url(#grad6)"/>
  <rect x="160" y="244" width="192" height="24" rx="4" fill="url(#grad6)" opacity="0.7"/>
  <rect x="160" y="308" width="192" height="24" rx="4" fill="url(#grad6)" opacity="0.45"/>
</svg>
