<svg xmlns="http://www.w3.org/2000/svg" viewBox="0 0 512 512">
  <defs>
    <linearGradient id="grad5a" x1="0%" y1="0%" x2="100%" y2="100%">
      <stop offset="0%" style="stop-color:#8B5CF6;stop-opacity:1" />
      <stop offset="100%" style="stop-color:#7C3AED;stop-opacity:1" />
    </linearGradient>
    <linearGradient id="grad5b" x1="0%" y1="0%" x2="100%" y2="100%">
      <stop offset="0%" style="stop-color:#A78BFA;stop-opacity:1" />
      <stop offset="100%" style="stop-color:#8B5CF6;stop-opacity:1" />
    </linearGradient>
  </defs>
  <rect x="16" y="16" width="480" height="480" rx="96" ry="96" fill="#0D0D0D"/>
  <!-- Row 1: all three -->
  <rect x="120" y="88" width="76" height="52" rx="6" fill="url(#grad5b)"/>
  <rect x="218" y="88" width="76" height="52" rx="6" fill="url(#grad5a)"/>
  <rect x="316" y="88" width="76" height="52" rx="6" fill="url(#grad5a)" opacity="0.8"/>
  <!-- Row 2: left only -->
  <rect x="120" y="160" width="76" height="52" rx="6" fill="url(#grad5a)"/>
  <!-- Row 3: all three -->
  <rect x="120" y="232" width="76" height="52" rx="6" fill="url(#grad5a)" opacity="0.8"/>
  <rect x="218" y="232" width="76" height="52" rx="6" fill="url(#grad5b)"/>
  <rect x="316" y="232" width="76" height="52" rx="6" fill="url(#grad5a)"/>
  <!-- Row 4: right only -->
  <rect x="316" y="304" width="76" height="52" rx="6" fill="url(#grad5a)"/>
  <!-- Row 5: all three -->
  <rect x="120" y="376" width="76" height="52" rx="6" fill="url(#grad5a)" opacity="0.8"/>
  <rect x="218" y="376" width="76" height="52" rx="6" fill="url(#grad5a)"/>
  <rect x="316" y="376" width="76" height="52" rx="6" fill="url(#grad5b)"/>
</svg>
